<svg width="179" height="80" viewBox="0 0 179 80" fill="none" xmlns="http://www.w3.org/2000/svg">
<path d="M4.88775 64V30.208H13.3358L13.4638 34.752C14.6158 33.216 16.1518 31.9573 18.0718 30.976C19.9918 29.9947 21.9971 29.504 24.0878 29.504C31.8531 29.504 35.7358 34.112 35.7358 43.328V64H27.0318V43.968C27.0318 39.1467 25.0051 36.8213 20.9518 36.992C18.8611 36.992 17.1118 37.632 15.7038 38.912C14.3384 40.192 13.6558 41.7707 13.6558 43.648V64H4.88775ZM57.1863 64.64C54.3703 64.64 51.8316 63.872 49.5703 62.336C47.3089 60.8 45.4956 58.7093 44.1302 56.064C42.8076 53.4187 42.1463 50.4107 42.1463 47.04C42.1463 43.584 42.8076 40.5547 44.1302 37.952C45.4956 35.3067 47.3303 33.2373 49.6343 31.744C51.9809 30.2507 54.6263 29.504 57.5703 29.504C59.9596 29.504 62.0503 29.9947 63.8423 30.976C65.6343 31.9147 67.0636 33.152 68.1303 34.688V30.208H76.8343V64H68.0663V59.456C66.8716 60.9493 65.3143 62.1867 63.3943 63.168C61.5169 64.1493 59.4476 64.64 57.1863 64.64ZM59.5543 57.024C62.1569 57.024 64.2689 56.1067 65.8903 54.272C67.5116 52.4373 68.3223 50.0267 68.3223 47.04C68.3223 44.0533 67.5116 41.6427 65.8903 39.808C64.2689 37.9733 62.1569 37.056 59.5543 37.056C56.9943 37.056 54.9036 37.9733 53.2823 39.808C51.7036 41.6427 50.9143 44.0533 50.9143 47.04C50.9143 50.0267 51.7036 52.4373 53.2823 54.272C54.9036 56.1067 56.9943 57.024 59.5543 57.024ZM89.3423 64V38.08H82.9423V30.208H89.3423V21.568H98.0463V30.208H105.15V38.08H98.0463V64H89.3423Z" fill="#585361"/>
<path d="M121.189 64V22.4H108.069V19.2H137.957V22.4H124.389V64H121.189ZM146.443 64V19.2H163.659C165.921 19.2 167.926 19.7547 169.675 20.864C171.467 21.9733 172.875 23.5093 173.899 25.472C174.923 27.392 175.435 29.6107 175.435 32.128C175.435 34.816 174.923 37.2053 173.899 39.296C172.875 41.344 171.467 42.9653 169.675 44.16C167.926 45.312 165.921 45.888 163.659 45.888H149.643V64H146.443ZM149.643 42.688H164.235C166.497 42.688 168.353 41.6853 169.803 39.68C171.297 37.6747 172.043 35.1147 172.043 32C172.043 29.2267 171.297 26.944 169.803 25.152C168.353 23.3173 166.497 22.4 164.235 22.4H149.643V42.688Z" fill="#7E7492"/>
</svg>
