<?xml version="1.0" encoding="UTF-8"?>
<svg xmlns="http://www.w3.org/2000/svg" viewBox="0 0 320.32 320.32">
  <path d="m170.04,243.67c14.88-17.15,34.36-30.01,49.43-50.64,2.57-3.52.07-8.47-4.29-8.47H6.44c-3.37,0-5.93-3.11-5.21-6.4,6.58-29.87,30.3-23.75,47.27-26.12,44.39-6.2,89.07-10.27,133.61-15.39,3.35-.39,6.63-1.38,11.29-2.73,3.51-1.02,4.98-5.2,2.86-8.18-9.98-14.05-18.49-26.64-28.01-38.41-13.38-16.55-11.05-32.98,4.96-42.73,5.98-3.64,22.67,4.87,31.23,11.83,34.51,28.06,66.6,59.18,101.82,86.27,29.23,22.48,4.98,41.94-6.02,51.2-36.2,30.44-71.18,47.39-110.13,74.35-4.38,3.03-14.49,2.14-15.61,1.52-9.46-5.27-11.55-17.92-4.46-26.1Z"/>
</svg>