<?xml version="1.0" encoding="UTF-8"?>
<svg id="Layer_3" data-name="Layer 3" xmlns="http://www.w3.org/2000/svg" viewBox="0 0 320.32 320.32">
  <defs>
    <style>
      .cls-1, .cls-2 {
        stroke-width: 0px;
      }

      .cls-2 {
        fill: #fff;
      }
    </style>
  </defs>
  <path class="cls-1" d="m76.29,182.71v17.97c-14.29,3.96-25.14,1.21-31.95-12.08-7.97-15.56-3.37-30.14,4.76-43.58,4.01-6.62,11.14-11.28,16.38-17.24,4.22-4.8,9.27-9.7,11.28-15.48,18.79-54.01,60.71-78.03,113.71-80.97,60.86-3.38,113.82,43.08,128.46,101.9,1.04,4.16.52,8.83.08,13.2-2.29,23.02-6.16,45.97-6.89,69.03-1.2,37.59-31.19,64.38-68.97,60.32-5.25-.56-12.14,1.06-16.14,4.3-18.79,15.21-35,11.28-43.64-11.5-4.67-12.3-8.21-25.17-14.22-36.77-9.09-17.55-34.08-22.37-49.71-10.98-5.21,3.8-10.34,8.3-16.24,10.4-4.97,1.76-13.11,2.71-16.01-.03-3.1-2.93-4.23-12.29-1.82-15.9,9.13-13.66.79-21.35-9.09-32.57Zm21.13-48.69c-20.57-4.16-35.02,2.58-44.34,19.43-5.29,9.57-1.55,28.98,7.62,39.5,7-9.09,14.09-18.3,22.62-29.39,3.9,10.44,6.24,16.69,9.78,26.15,7.28-12.89,13.62-21.75,17.51-31.58,6.19-15.62,10.73-31.89,15.99-47.88,2.86-8.71,6.87-11.77,16.54-6.74,5.35,2.78,14.04,2.93,19.7.59,13.02-5.4,25.1-13.07,37.58-19.79,3.63-1.96,7.3-3.85,12.24-6.44.75,4.61,1.09,6.94,1.5,9.26,2.07,11.55,2.57,23.68,6.62,34.49,5.66,15.13,19.04,12.8,31.78,10.52,2.11-.38,6.87,2.57,6.82,3.84-.12,2.91-1.92,6.24-4.05,8.42-1.74,1.78-4.95,2.13-11.56,4.69,13.69,4.52,23.7,7.82,35.5,11.71-41.69,19.2-37.67,67.85-66.78,94.4,27.15,20.59,76.34,10.29,84.34-20.32,8.48-32.49,14.55-67.82,10.82-100.68-4.23-37.25-35.39-60.78-66.7-79.47-10.66-6.36-23.61-10.45-35.98-12.1-41.01-5.45-73.23,13.93-102.02,40.06-20.37,18.49-21.5,30.97-5.53,51.33Zm79.22,4.62c-16.55,3.3-29.02,5.63-41.42,8.29-15.72,3.37-18.27,11.02-8.79,24.09,5.16,7.11,10.66,14.33,13.94,22.35,5.49,13.38,21.91,22.98,34.49,15.87,18.6-10.51,35.7-12.99,55.55,4.63,0-10.76,2.74-19.6-.51-23.78-9.94-12.78-22.4-23.57-33.4-35.57-3.21-3.51-4.8-8.5-7.19-12.92,9.48-2.79,16.72-4.92,23.7-6.97-3.59-12.48-6.54-22.74-10.07-34.99-13.62,6.71-26.91,13.25-40.52,19.96,4.6,6.18,8.03,10.77,14.2,19.06Zm15.3,113.7c5.99-3.43,9.17-5.54,12.58-7.16,12.45-5.93,19.85-18.29,15.7-26.54-4.57-9.07-22.92-12.81-33.59-6.67-8.9,5.12-11.1,11.48-5.08,20.92,3.8,5.95,5.52,13.25,7.98,20.01,2.36,6.47,3.35,13.75,6.94,19.4,6.66,10.48,15.59,10.35,22.3.84-8.35-6.47-16.69-12.94-26.83-20.8Zm-80.37-76.06c-1.17,1.1-2.33,2.21-3.5,3.31.58,8.01,1.17,16.01,1.74,23.9-17.7,2.63-20.59,7.09-13.2,22.23,8.06-6.01,16.43-11.13,23.34-17.78,4.76-4.58,11.84-13.87,10.26-16.48-3.88-6.46-12.15-10.29-18.66-15.17Zm99.62-23.83c11.38,9.92,21.22,18.5,31.32,27.31,2.92-3.75,7.58-9.73,13.03-16.72-14.66-4.71-24.95-20.1-44.35-10.59Zm-59.04-17.84c.27-1.86.54-3.72.81-5.58-6-1.12-12.05-3.13-17.98-2.82-1.87.1-3.42,6.42-6.37,12.47,10.49-1.81,17.02-2.94,23.54-4.07Z"/>
  <path class="cls-1" d="m60.52,80.89c-.16,27.82-6.54,32.99-29.22,27.01-7.62-2.01-16.01-4.18-21.82-8.98-4.82-3.98-9.98-13.14-8.41-17.81,1.93-5.77,10.44-9.6,16.54-13.6,2.74-1.8,7.87-.91,9.63-3.09,11.95-14.75,24.15-13.24,31.18,4.75,1.93,4.93,1.93,10.62,2.11,11.73Zm-10.24,23.55c1.16-9.75,3.53-16.38,2.23-22.19-1.46-6.48-6.25-12.22-9.59-18.28-2.7,5.3-5.4,10.61-8.13,15.89-.21.41-.7.67-1.94,1.81-1.98-.46-4.68-1.68-7.36-1.61-5.35.13-10.69.96-16.03,1.51,3.35,4.67,5.71,11.37,10.27,13.59,8.58,4.18,18.42,5.79,30.56,9.28Z"/>
  <path class="cls-2" d="m97.43,134.03c-15.97-20.37-14.84-32.84,5.53-51.33,28.78-26.13,61.01-45.51,102.02-40.06,12.37,1.64,25.32,5.73,35.98,12.1,31.31,18.69,62.47,42.22,66.7,79.47,3.73,32.86-2.34,68.19-10.82,100.68-7.99,30.62-57.19,40.92-84.34,20.32,29.12-26.55,25.09-75.2,66.78-94.4-11.8-3.9-21.81-7.2-35.5-11.71,6.61-2.55,9.81-2.91,11.56-4.69,2.13-2.17,3.93-5.51,4.05-8.42.05-1.27-4.71-4.22-6.82-3.84-12.74,2.27-26.13,4.6-31.78-10.52-4.04-10.81-4.55-22.95-6.62-34.49-.41-2.32-.76-4.65-1.5-9.26-4.94,2.6-8.61,4.49-12.24,6.44-12.47,6.73-24.56,14.39-37.58,19.79-5.65,2.35-14.34,2.19-19.7-.59-9.67-5.02-13.68-1.97-16.54,6.74-5.26,15.99-9.8,32.26-15.99,47.88-3.89,9.83-10.24,18.69-17.51,31.58-3.54-9.46-5.88-15.71-9.78-26.15-8.53,11.08-15.63,20.3-22.62,29.39-9.17-10.51-12.91-29.93-7.62-39.5,9.32-16.85,23.76-23.59,44.34-19.43Z"/>
  <path class="cls-2" d="m176.65,138.65c-6.17-8.28-9.59-12.88-14.2-19.06,13.61-6.7,26.9-13.25,40.52-19.96,3.53,12.26,6.48,22.51,10.07,34.99-6.98,2.05-14.22,4.18-23.7,6.97,2.39,4.42,3.98,9.42,7.19,12.92,10.99,12.01,23.46,22.8,33.4,35.57,3.26,4.19.51,13.03.51,23.78-19.85-17.62-36.96-15.14-55.55-4.63-12.58,7.11-29-2.49-34.49-15.87-3.29-8.01-8.79-15.24-13.94-22.35-9.48-13.07-6.93-20.72,8.79-24.09,12.4-2.66,24.87-4.99,41.42-8.29Zm-3.15,60.94c13.62.09,17.83-9.56,18.86-20.32.41-4.28-3.78-12.67-6.52-12.95-12.08-1.25-24.4-.27-36.62.15-.41.01-.9,2.64-1.06,4.08-1.65,14.72,10.75,28.9,25.34,29.04Z"/>
  <path class="cls-2" d="m191.95,252.34c10.14,7.86,18.49,14.33,26.83,20.8-6.71,9.51-15.63,9.64-22.29-.84-3.59-5.65-4.58-12.93-6.94-19.4-2.46-6.76-4.18-14.06-7.98-20.01-6.02-9.43-3.82-15.79,5.08-20.92,10.66-6.14,29.01-2.4,33.59,6.67,4.16,8.24-3.24,20.61-15.7,26.54-3.41,1.62-6.59,3.73-12.58,7.16Z"/>
  <path class="cls-2" d="m111.58,176.29c6.5,4.89,14.77,8.71,18.66,15.17,1.57,2.61-5.51,11.91-10.26,16.48-6.91,6.65-15.28,11.77-23.34,17.78-7.4-15.14-4.5-19.6,13.2-22.23-.58-7.88-1.16-15.89-1.74-23.9,1.17-1.1,2.33-2.21,3.5-3.31Z"/>
  <path class="cls-2" d="m211.2,152.46c19.4-9.51,29.69,5.89,44.35,10.59-5.44,6.99-10.11,12.97-13.03,16.72-10.11-8.81-19.94-17.39-31.32-27.31Z"/>
  <path class="cls-2" d="m152.16,134.62c-6.52,1.13-13.04,2.25-23.54,4.07,2.95-6.05,4.5-12.37,6.37-12.47,5.93-.31,11.98,1.71,17.98,2.82-.27,1.86-.54,3.72-.81,5.58Z"/>
  <path class="cls-2" d="m50.28,104.44c-12.13-3.49-21.97-5.09-30.56-9.28-4.55-2.22-6.91-8.91-10.27-13.59,5.34-.54,10.68-1.37,16.03-1.51,2.68-.07,5.38,1.14,7.36,1.61,1.24-1.14,1.73-1.41,1.94-1.81,2.73-5.29,5.43-10.59,8.13-15.89,3.34,6.06,8.13,11.8,9.59,18.28,1.3,5.81-1.06,12.44-2.23,22.19Z"/>
  <path class="cls-1" d="m173.48,199.57c-14.57-.13-26.97-14.31-25.32-29.03.16-1.44.65-4.06,1.06-4.08,12.22-.42,24.54-1.4,36.62-.15,2.74.28,6.93,8.67,6.52,12.95-1.03,10.75-5.25,20.4-18.88,20.3Zm-13.6-27.6c-1.13,1.3-2.26,2.6-3.39,3.89,3.29,4.1,5.83,9.57,10.1,11.87,3.4,1.83,9.45.95,13.24-.92,2.49-1.23,3.06-6.36,4.49-9.74-3.91-1.39-7.72-3.22-11.74-4.06-4.13-.86-8.45-.74-12.69-1.04Z"/>
  <path class="cls-2" d="m159.88,171.97c4.24.31,8.57.19,12.69,1.04,4.02.83,7.84,2.66,11.74,4.06-1.43,3.38-1.99,8.51-4.49,9.74-3.79,1.87-9.84,2.76-13.24.92-4.26-2.3-6.81-7.77-10.1-11.87,1.13-1.3,2.26-2.6,3.39-3.89Z"/>
</svg>