<?xml version="1.0" encoding="UTF-8"?>
<svg xmlns="http://www.w3.org/2000/svg" viewBox="0 0 320.32 320.32">
  <path d="m302.03,54.74c6.04-23.47-11.71-33.34-34.77-23.47-15.22,6.52-31.37,11.87-45,20.91-27.1,17.97-28.18,7.19-50.26-19.03-15.01-17.82-23.88-40-48.5-30.41-7.83,3.05-11.56,27.55-10.1,41.5,2.63,25.18,1.72,42.43-5.49,56.59-1.9,3.73-14.97,14.79-41.07,36.76,0,0-5.4,4.54-29.27,26.77-13.15,12.24-22.42,21.18-20.12,28.84.17.57.92,2.83,4.06,5.32,9.56,7.57,28.55,3.58,66.12-4.71,15.49-3.42,22.52-4.98,27.86-.75,6.61,5.24,6.2,15.83,5.99,22.18-3.09,91.24,7.35,101.08,11.85,103.53,1.08.58,4.14,2.01,7.66,1.41,8.95-1.52,13.51-14.87,15.51-20.5,14.07-39.62,21.18-59.66,35.14-66.46,4.57-2.23,41.86,12.6,84.36,21.1,15,3,8-19-2-41-3.9-8.57-11.42-27.98-14-37-6-21-10.23-33.52,5.3-52.19,16.51-19.84,30.35-44.58,36.74-69.4ZM49.16,176.6l48.84-32.27,12,20-60.84,12.27Zm83.7-87.89c-1.55-13.66,3.14-67.88,3.14-55.58,2.36,13.35,26.35,31.76,28.71,45.11-6.35,1.11-25.49,9.36-31.84,10.47Zm13.65,165.61s-6.55-16.75-2.91-54.62c0,0,10.97,7.76,16.41,8.61,0,0-9.86,35.81-13.5,46.01Zm31.5-84c-10.27,2.72-40.08-22.63-42-42-1.31-13.18,37.23-13.5,48-24,9.15,12.43,17.85,30.09,23,44,1.59,4.29-16.17,9.48-29,22Zm38,35c-20.24-2.17-21.06-3.5-20-4,0,0,0,0,0,0l25-26s30.92,33.85-5,30Zm9.75-88.1c-5.77-12.78-14.31-28.95-13.2-29.65,15.44-9.63,55.91-30.56,58.76-25.74-13.11,12.02-27.76,39.08-45.56,55.39Z"/>
</svg>