<svg width="2040" height="252" viewBox="0 0 2040 252" fill="none" xmlns="http://www.w3.org/2000/svg">
<path fill-rule="evenodd" clip-rule="evenodd" d="M1530 252H1020L510 252H0V84.8105C70.6667 84.8032 141.333 74.7737 212 57.6568C236.381 51.7513 260.761 45.0022 285.142 38.2531L285.143 38.2528C346.095 21.3798 407.048 4.5067 468 0.815721C482.064 -0.0359047 496.127 -0.185755 510 0.204247C523.873 -0.185755 537.936 -0.0359047 552 0.815721C612.952 4.5067 673.905 21.3798 734.857 38.2528L734.858 38.2531C759.239 45.0022 783.619 51.7513 808 57.6568C878.667 74.7737 949.333 84.8032 1020 84.8105C1090.67 84.8032 1161.33 74.7737 1232 57.6568C1256.38 51.7513 1280.76 45.0022 1305.14 38.2531L1305.14 38.2528C1366.1 21.3798 1427.05 4.50669 1488 0.815713C1502.06 -0.0359112 1516.13 -0.185763 1530 0.204238C1543.87 -0.185763 1557.94 -0.0359112 1572 0.815713C1632.95 4.50669 1693.9 21.3798 1754.86 38.2528L1754.86 38.2531C1779.24 45.0022 1803.62 51.7513 1828 57.6568C1898.67 74.7737 1969.33 84.8032 2040 84.8105V252H1530Z"/>
</svg>
