<svg width="416" height="416" viewBox="0 0 416 416" fill="none" xmlns="http://www.w3.org/2000/svg">
<path fill-rule="evenodd" clip-rule="evenodd" d="M53 128.8L37 120.6C16.4497 160.865 10.7657 207.089 20.949 251.133C31.1323 295.177 56.5299 334.215 92.6688 361.373C128.808 388.531 173.37 402.066 218.508 399.595C263.647 397.124 306.466 378.806 339.424 347.866C372.383 316.926 393.368 275.348 398.682 230.456C403.997 185.564 393.302 140.236 368.479 102.455C343.657 64.6738 306.299 36.8629 262.986 23.92C219.673 10.977 173.182 13.7321 131.7 31.7L138.8 48.3C176.397 32.019 218.533 29.5269 257.786 41.2628C297.04 52.9986 330.894 78.2096 353.384 112.455C375.875 146.701 385.56 187.784 380.733 228.469C375.907 269.155 356.878 306.832 327 334.865C297.121 362.898 258.309 379.488 217.399 381.715C176.489 383.941 136.105 371.659 103.361 347.034C70.6173 322.408 47.6131 287.018 38.4006 247.097C29.188 207.175 34.3581 165.284 53 128.8Z" fill="#C5BDD7"/>
<path d="M94.7 92.3L82 126.5L62.6 95.7L26.2 94.3L49.5 66.3L39.6 31.2L73.5 44.7L103.8 24.4L101.4 60.8L130 83.3L94.7 92.3Z" fill="#C9B0FD"/>
</svg>
